<svg width="582" height="395" viewBox="0 0 582 395" fill="none" xmlns="http://www.w3.org/2000/svg">
<g filter="url(#filter0_d)">
<path d="M146.973 242.832H70.6043C68.1817 242.832 66.3359 240.871 66.3359 238.564V119.858C66.3359 117.436 68.2971 115.59 70.6043 115.59H146.973C149.395 115.59 151.241 117.551 151.241 119.858V238.448C151.241 240.871 149.395 242.832 146.973 242.832Z" fill="#F4F4F4"/>
<path d="M98.9819 157.468H77.9864C77.4096 157.468 77.0635 157.007 77.0635 156.545V135.665C77.0635 135.088 77.5249 134.742 77.9864 134.742H98.8665C99.4433 134.742 99.7894 135.204 99.7894 135.665V156.545C99.9047 157.007 99.4433 157.468 98.9819 157.468Z" fill="#31A0F0"/>
<path d="M94.9443 198.423H77.871C77.4096 198.423 77.0635 198.077 77.0635 197.615V180.542C77.0635 180.08 77.4096 179.734 77.871 179.734H94.9443C95.4057 179.734 95.7518 180.08 95.7518 180.542V197.615C95.7518 198.077 95.4057 198.423 94.9443 198.423Z" fill="#FF971F"/>
<path d="M117.786 198.423H100.713C100.251 198.423 99.9053 198.077 99.9053 197.615V180.542C99.9053 180.08 100.251 179.734 100.713 179.734H117.786C118.248 179.734 118.594 180.08 118.594 180.542V197.615C118.594 198.077 118.248 198.423 117.786 198.423Z" fill="#FF971F"/>
<path d="M140.397 198.423H123.324C122.863 198.423 122.517 198.077 122.517 197.615V180.542C122.517 180.08 122.863 179.734 123.324 179.734H140.397C140.859 179.734 141.205 180.08 141.205 180.542V197.615C141.09 198.077 140.743 198.423 140.397 198.423Z" fill="#FF971F"/>
<path d="M94.9443 222.987H77.871C77.4096 222.987 77.0635 222.641 77.0635 222.18V205.106C77.0635 204.645 77.4096 204.299 77.871 204.299H94.9443C95.4057 204.299 95.7518 204.645 95.7518 205.106V222.18C95.7518 222.641 95.4057 222.987 94.9443 222.987Z" fill="#FF971F"/>
<path d="M117.786 222.987H100.713C100.251 222.987 99.9053 222.641 99.9053 222.18V205.106C99.9053 204.645 100.251 204.299 100.713 204.299H117.786C118.248 204.299 118.594 204.645 118.594 205.106V222.18C118.594 222.641 118.248 222.987 117.786 222.987Z" fill="#FF971F"/>
<path d="M140.397 222.987H123.324C122.863 222.987 122.517 222.641 122.517 222.18V205.106C122.517 204.645 122.863 204.299 123.324 204.299H140.397C140.859 204.299 141.205 204.645 141.205 205.106V222.18C141.09 222.641 140.743 222.987 140.397 222.987Z" fill="#FF971F"/>
<path d="M140.627 151.696H101.866C101.52 151.696 101.289 151.465 101.289 151.119V147.889C101.289 147.543 101.52 147.312 101.866 147.312H140.627C140.973 147.312 141.204 147.543 141.204 147.889V151.119C141.088 151.465 140.858 151.696 140.627 151.696Z" fill="#B9C3E0"/>
<path d="M120.785 143.161H101.751C101.52 143.161 101.289 142.93 101.289 142.7V137.393C101.289 137.162 101.52 136.932 101.751 136.932H120.785C121.016 136.932 121.246 137.162 121.246 137.393V142.7C121.246 143.046 121.016 143.161 120.785 143.161Z" fill="#B9C3E0"/>
<path d="M140.627 157.466H101.866C101.52 157.466 101.289 157.235 101.289 156.889V153.659C101.289 153.313 101.52 153.082 101.866 153.082H140.627C140.973 153.082 141.204 153.313 141.204 153.659V156.889C141.088 157.235 140.858 157.466 140.627 157.466Z" fill="#B9C3E0"/>
<path d="M140.396 163.235H77.7556C77.4096 163.235 77.0635 162.889 77.0635 162.543V159.544C77.0635 159.198 77.4096 158.852 77.7556 158.852H140.396C140.742 158.852 141.088 159.198 141.088 159.544V162.543C141.088 162.889 140.858 163.235 140.396 163.235Z" fill="#B9C3E0"/>
<path d="M140.396 169.001H77.7556C77.4096 169.001 77.0635 168.655 77.0635 168.309V165.309C77.0635 164.963 77.4096 164.617 77.7556 164.617H140.396C140.742 164.617 141.088 164.963 141.088 165.309V168.309C141.088 168.77 140.858 169.001 140.396 169.001Z" fill="#B9C3E0"/>
<path d="M298.557 144.197L303.402 182.266L354.852 183.535L361.197 140.044L321.744 90.6699L298.557 144.197Z" fill="#3A0404"/>
<path d="M408.264 264.403C408.264 264.403 432.028 298.665 431.912 308.24C431.797 317.815 414.493 332.581 407.802 334.772C401.111 336.964 368.234 338.464 357.851 336.618C347.353 334.772 367.311 300.741 367.311 300.741L378.847 282.514L400.881 262.096L408.264 264.403Z" fill="#FFA39B"/>
<path d="M269.139 26.6445C263.487 29.0671 249.99 30.7975 238.569 41.8721C227.148 52.9466 215.382 68.4048 216.881 80.5176C218.266 92.6304 227.148 100.59 225.764 110.857C224.38 121.124 205.807 133.353 206.73 145.927C207.537 158.501 217.458 162.769 217.804 165.653C219.304 179.15 214.228 194.378 210.883 198.069C207.537 201.761 253.22 189.302 256.104 185.264C258.988 181.227 277.33 151.925 277.33 151.925L269.139 26.6445Z" fill="#530302"/>
<path d="M386.114 294.967C386.114 294.967 406.648 296.005 410.224 299.927C410.224 299.927 386.46 298.427 377.808 303.388L378.846 282.623C378.73 282.623 382.422 296.582 386.114 294.967Z" fill="#F97069"/>
<path d="M168.084 264.403C168.084 264.403 144.32 298.665 144.435 308.24C144.55 317.815 161.854 332.581 168.545 334.772C175.236 336.964 208.114 338.464 218.496 336.618C228.994 334.772 209.037 300.741 209.037 300.741L197.501 282.514L175.467 262.096L168.084 264.403Z" fill="#FFA39B"/>
<path d="M190.233 294.967C190.233 294.967 169.699 296.005 166.123 299.927C166.123 299.927 189.887 298.427 198.539 303.388L197.501 282.623C197.616 282.623 193.925 296.582 190.233 294.967Z" fill="#F97069"/>
<path d="M254.258 127.932C254.258 127.932 255.758 139.698 252.297 144.197C248.836 148.696 246.529 161.617 248.836 169.692L260.949 172.922L270.524 162.194L273.062 137.045L254.258 127.932Z" fill="#3A0404"/>
<path d="M378.616 282.74C366.388 284.009 349.315 256.092 349.315 256.092L333.972 341.343H236.147L220.804 256.092C220.804 256.092 203.731 284.124 191.503 282.74C179.274 281.471 156.087 264.398 163.47 256.092C170.853 247.786 210.768 187.914 219.074 179.147C225.188 172.687 246.529 169.803 257.373 168.764C261.18 168.418 263.718 168.188 263.718 168.188C263.718 168.188 265.448 186.76 284.829 186.991H285.406C304.786 186.76 306.516 168.188 306.516 168.188C306.516 168.188 308.478 168.303 311.708 168.649C322.09 169.572 344.816 172.456 351.161 179.147C359.467 187.914 399.266 247.786 406.649 256.092C414.032 264.398 390.845 281.356 378.616 282.74Z" fill="#FF971F"/>
<path d="M306.515 168.075C306.515 168.075 304.785 186.648 285.404 186.878H284.828C265.447 186.648 263.717 168.075 263.717 168.075C270.292 159.307 267.062 144.195 267.062 144.195L285.058 150.194L303.055 144.195C303.17 144.195 299.94 159.423 306.515 168.075Z" fill="#FFA39B"/>
<path d="M324.742 88.7109C324.742 88.7109 327.28 86.4037 329.587 87.788C331.895 89.1723 333.625 95.1711 332.933 99.4394C332.125 103.708 329.126 108.668 323.704 107.976V90.672L324.742 88.7109Z" fill="#FFA39B"/>
<path d="M326.012 92.6329C326.242 91.4793 329.242 90.5564 329.472 91.0178C329.818 91.4793 332.126 96.3244 330.049 100.708C328.088 105.092 326.127 103.361 325.896 102.438C325.666 101.516 325.781 93.7865 326.012 92.6329Z" fill="#F97069"/>
<path d="M302.478 149.848C302.478 149.848 293.941 159.423 285.059 159.423C276.291 159.423 267.755 149.848 267.755 149.848L267.062 144.195H303.17L302.478 149.848Z" fill="#F97069"/>
<path d="M320.821 118.242C310.669 140.967 294.288 154.118 285.059 154.118C275.831 154.118 259.334 140.967 249.298 118.242C242.838 103.706 244.683 89.9783 246.76 81.9031C247.798 80.8649 249.182 79.4805 250.567 77.7501C257.488 69.5596 267.063 55.7164 267.063 55.7164L269.255 52.0249L272.831 51.3327L275.831 50.7559L285.059 48.9102L313.207 54.5628L320.821 74.6354C320.821 74.6354 322.667 78.4423 323.936 84.441C324.166 85.3639 324.397 86.5175 324.512 87.5557C324.628 88.2479 324.743 89.0554 324.859 89.7476C324.974 90.5551 325.089 91.478 325.089 92.4009C325.666 99.7839 324.974 108.897 320.821 118.242Z" fill="#FFA39B"/>
<path d="M310.048 98.4751C310.084 94.2701 308.254 90.8454 305.96 90.8257C303.667 90.806 301.778 94.1989 301.742 98.4038C301.706 102.609 303.536 106.034 305.83 106.053C308.123 106.073 310.012 102.68 310.048 98.4751Z" fill="#0A0608"/>
<path d="M271.109 98.1938C271.145 93.9888 269.314 90.5641 267.021 90.5444C264.727 90.5248 262.839 93.9176 262.803 98.1226C262.767 102.328 264.597 105.752 266.89 105.772C269.184 105.792 271.072 102.399 271.109 98.1938Z" fill="#0A0608"/>
<path d="M257.488 87.5548C257.488 87.5548 267.409 77.8646 277.099 87.5548" stroke="#0A0608" stroke-miterlimit="10" stroke-linecap="round" stroke-linejoin="round"/>
<path d="M267.985 94.5902C268.559 94.5902 269.024 94.1253 269.024 93.5519C269.024 92.9785 268.559 92.5137 267.985 92.5137C267.412 92.5137 266.947 92.9785 266.947 93.5519C266.947 94.1253 267.412 94.5902 267.985 94.5902Z" fill="white"/>
<path d="M306.977 94.5902C307.55 94.5902 308.015 94.1253 308.015 93.5519C308.015 92.9785 307.55 92.5137 306.977 92.5137C306.403 92.5137 305.938 92.9785 305.938 93.5519C305.938 94.1253 306.403 94.5902 306.977 94.5902Z" fill="white"/>
<path d="M298.557 136.928L298.441 137.043C295.903 138.774 292.327 140.043 287.713 140.043C281.253 140.043 276.292 138.774 273.177 136.928C270.409 135.313 269.14 133.237 269.255 131.045C269.601 126.315 273.754 128.276 273.754 128.276C278.369 130.006 293.25 130.583 300.172 128.276C304.901 126.661 304.325 133.006 298.557 136.928Z" fill="#8E212E"/>
<path d="M244.798 88.707C244.798 88.707 242.26 86.3998 239.953 87.7841C237.646 89.1684 235.915 95.1672 236.607 99.4355C237.299 103.704 240.414 108.664 245.836 107.972V90.6681L244.798 88.707Z" fill="#FFA39B"/>
<path d="M243.529 92.629C243.298 91.4754 240.299 90.5525 240.068 91.0139C239.722 91.4754 237.415 96.3205 239.491 100.704C241.453 105.088 243.414 103.357 243.644 102.435C243.875 101.512 243.644 93.7826 243.529 92.629Z" fill="#F97069"/>
<path d="M329.588 88.2459L325.204 89.6302L324.973 89.7456L321.859 90.6684C321.859 90.6684 307.554 84.3236 301.555 84.5544C295.672 84.6697 271.331 74.2873 267.986 64.5971C267.986 64.5971 262.333 72.7877 250.682 77.7481C257.603 69.5576 267.178 55.7144 267.178 55.7144L269.37 52.0229L272.946 51.3307L275.945 50.7539L324.051 84.5544L324.627 85.0158L329.588 88.2459Z" fill="#F97069"/>
<path d="M264.409 48.6775C265.217 56.1759 277.214 77.8635 301.786 83.5162C326.358 89.1688 317.821 123.546 320.82 137.159C323.82 150.771 343.085 147.195 343.085 154.116C343.085 161.038 337.663 180.188 339.278 192.301C341.008 204.298 343.315 245.943 377.001 234.753C410.801 223.563 402.264 189.763 392.113 176.612C381.961 163.461 375.501 156.885 377.001 138.081C378.5 119.278 368.118 112.702 363.042 104.281C357.966 95.8597 349.66 81.6704 348.853 61.9439C348.045 42.2173 329.588 24.798 315.86 19.1453C302.017 13.4927 275.714 20.0682 268.562 26.6437C261.41 33.2192 264.409 48.6775 264.409 48.6775Z" fill="#530302"/>
<path d="M298.556 136.926L298.441 137.041C295.903 138.772 292.327 140.041 287.712 140.041C281.252 140.041 276.291 138.772 273.177 136.926C273.177 136.926 279.175 135.08 287.02 135.08C294.749 135.08 298.556 136.926 298.556 136.926Z" fill="#A5252F"/>
<path d="M311.707 168.54C311.707 168.54 308.592 192.304 284.712 192.304C260.833 192.304 257.372 168.655 257.372 168.655C261.179 168.309 263.717 168.078 263.717 168.078C263.717 168.078 265.447 186.651 284.828 186.882H285.405C304.785 186.651 306.515 168.078 306.515 168.078C306.515 168.078 308.477 168.193 311.707 168.54Z" fill="white"/>
<path d="M295.211 87.5548C295.211 87.5548 305.132 77.8646 314.822 87.5548" stroke="#0A0608" stroke-miterlimit="10" stroke-linecap="round" stroke-linejoin="round"/>
<path d="M288.635 107.975C289.788 110.974 291.403 118.357 285.059 118.703" stroke="#F97069" stroke-miterlimit="10" stroke-linecap="round"/>
<path d="M246.644 35.6406C246.644 35.6406 239.261 40.0243 230.724 50.2913C222.187 60.5584 220.572 65.0574 220.572 65.0574" stroke="#0A0608" stroke-miterlimit="10" stroke-linecap="round" stroke-linejoin="round"/>
<path d="M216.766 181.803L184.58 226.908" stroke="#0A0608" stroke-width="2" stroke-miterlimit="10" stroke-linecap="round" stroke-linejoin="round"/>
<path opacity="0.88" d="M267.062 55.7129C267.062 55.7129 277.906 74.978 294.057 79.5924" stroke="#F4F7FB" stroke-width="2" stroke-miterlimit="10" stroke-linecap="round"/>
<path d="M390.268 225.522L375.386 345.497L198.655 366.954L184.119 225.407C183.427 219.177 188.388 213.871 194.617 213.871H379.885C386.115 213.756 391.075 219.293 390.268 225.522Z" fill="#EAF4FC"/>
<path d="M547.618 369.262H34.4971C27.1141 369.262 21 363.263 21 355.765C21 348.382 26.9987 342.268 34.4971 342.268H547.503C554.886 342.268 561 348.266 561 355.765C561 363.263 555.001 369.262 547.618 369.262Z" fill="#1F8DE4"/>
<path d="M159.432 277.67C159.432 277.67 143.512 298.896 144.435 308.356C145.358 317.815 151.934 322.199 151.934 322.199" stroke="#0A0608" stroke-width="2" stroke-miterlimit="10" stroke-linecap="round" stroke-linejoin="round"/>
<path d="M250.566 213.756H366.734" stroke="#0A0608" stroke-width="2" stroke-miterlimit="10" stroke-linecap="round" stroke-linejoin="round"/>
<path d="M376.309 337.424H195.655V342.384H376.309V337.424Z" fill="#0A0608"/>
<path d="M287.251 295.429C295.407 295.429 302.018 288.818 302.018 280.663C302.018 272.507 295.407 265.896 287.251 265.896C279.096 265.896 272.485 272.507 272.485 280.663C272.485 288.818 279.096 295.429 287.251 295.429Z" fill="#208EE5"/>
<path d="M136.707 343.651C124.248 343.651 114.097 333.499 114.097 321.04C114.097 308.581 124.248 298.43 136.707 298.43C149.166 298.43 159.318 308.581 159.318 321.04C159.318 333.614 149.166 343.651 136.707 343.651ZM136.707 306.736C128.747 306.736 122.287 313.196 122.287 321.156C122.287 329.115 128.747 335.576 136.707 335.576C144.667 335.576 151.127 329.115 151.127 321.156C151.127 313.196 144.667 306.736 136.707 306.736Z" fill="#D95B19"/>
<path d="M138.437 291.277V340.998C138.437 347.573 133.13 352.88 126.555 352.88H103.483C96.9071 352.88 91.6006 347.573 91.6006 340.998V291.277C91.6006 288.278 94.0232 285.855 97.0225 285.855H133.015C136.014 285.855 138.437 288.278 138.437 291.277Z" fill="#D95B19"/>
<path d="M128.746 291.277V340.998C128.746 347.573 123.44 352.88 116.864 352.88H103.483C96.9071 352.88 91.6006 347.573 91.6006 340.998V291.277C91.6006 288.278 94.0232 285.855 97.0225 285.855H123.325C126.324 285.855 128.746 288.278 128.746 291.277Z" fill="#F17022"/>
<path d="M91.6006 292.662V322.771" stroke="#0A0608" stroke-width="2" stroke-miterlimit="10" stroke-linecap="round" stroke-linejoin="round"/>
<path d="M532.622 176.152H409.648C406.995 176.152 404.803 173.96 404.803 171.307V79.3646C404.803 76.7114 406.995 74.5195 409.648 74.5195H532.622C535.275 74.5195 537.467 76.7114 537.467 79.3646V171.307C537.351 173.96 535.275 176.152 532.622 176.152Z" fill="#F4F4F4"/>
<path d="M412.532 167.734H431.797V141.432L412.532 154.237V167.734Z" fill="#2BABF9"/>
<path d="M431.797 147.776V141.432L412.532 154.237V167.734H422.107V154.237L431.797 147.776Z" fill="#1F8DE4"/>
<path d="M436.527 138.193V167.725H455.908V150.421L440.796 135.309L436.527 138.193Z" fill="#2BABF9"/>
<path d="M460.638 167.732H480.018V139.699L460.638 154.581V167.732Z" fill="#2BABF9"/>
<path d="M484.748 167.73H504.129V121.125L484.748 136.006V167.73Z" fill="#2BABF9"/>
<path d="M508.857 117.43V167.727H528.123V111.893L522.931 106.586L508.857 117.43Z" fill="#2BABF9"/>
<path d="M523.393 100.244L460.637 148.465L441.372 129.2L412.532 148.465V129.2L441.372 109.819L460.637 129.2L513.703 90.554L508.858 85.8242H528.123V105.089L523.393 100.244Z" fill="#FFC543"/>
<path d="M422.107 129.199L445.294 113.741L441.372 109.818L412.532 129.199V148.464L422.107 142.004V129.199Z" fill="#FFB343"/>
<path d="M424.298 329.465C424.298 332.464 425.567 335.233 427.528 337.194C429.49 339.155 432.258 340.424 435.258 340.424H534.813V345.5H426.144C416.915 345.5 409.417 338.347 409.417 329.465C409.417 320.582 416.915 313.43 426.144 313.43H534.813V318.506H435.258C429.259 318.506 424.298 323.466 424.298 329.465Z" fill="#131D59"/>
<path d="M532.391 318.506V340.54H435.258C432.259 340.54 429.49 339.271 427.529 337.31C425.568 335.348 424.299 332.58 424.299 329.58C424.299 323.466 429.259 318.621 435.258 318.621H532.391V318.506Z" fill="white"/>
<path d="M435.258 324.389H529.622" stroke="#0A0608" stroke-miterlimit="10" stroke-linecap="round" stroke-linejoin="round"/>
<path d="M435.258 332.695H529.622" stroke="#0A0608" stroke-miterlimit="10" stroke-linecap="round" stroke-linejoin="round"/>
<path d="M411.262 291.856V304.545C411.262 307.083 413.569 309.16 416.338 309.16H526.737V313.774H411.262C405.725 313.774 401.11 309.621 401.11 304.545V291.856C401.11 286.78 405.609 282.627 411.262 282.627H526.737V287.241H416.338C413.569 287.241 411.262 289.318 411.262 291.856Z" fill="#E57505"/>
<path d="M524.2 287.242V309.161H413.8C411.032 309.161 408.725 307.084 408.725 304.546V291.857C408.725 289.319 411.032 287.242 413.8 287.242H524.2Z" fill="white"/>
<path d="M151.241 137.155C137.744 137.155 126.785 126.196 126.785 112.698C126.785 99.2014 137.744 88.2422 151.241 88.2422C164.739 88.2422 175.698 99.2014 175.698 112.698C175.813 126.196 164.854 137.155 151.241 137.155Z" fill="#2BABF9"/>
<path d="M132.207 112.585C132.207 100.011 141.782 89.6286 154.01 88.2443C153.087 88.1289 152.164 88.1289 151.241 88.1289C137.744 88.1289 126.785 99.0881 126.785 112.585C126.785 126.082 137.744 137.042 151.241 137.042C152.164 137.042 153.087 136.926 154.01 136.926C141.782 135.657 132.207 125.275 132.207 112.585Z" fill="#31A0F0"/>
<path d="M410.11 92.1665C396.613 92.1665 385.653 81.2073 385.653 67.7102C385.653 54.2131 396.613 43.2539 410.11 43.2539C423.607 43.2539 434.566 54.2131 434.566 67.7102C434.681 81.2073 423.722 92.1665 410.11 92.1665Z" fill="#FF971F"/>
<path d="M391.075 67.5969C391.075 55.0227 400.65 44.6403 412.878 43.256C411.955 43.1406 411.033 43.1406 410.11 43.1406C396.613 43.1406 385.653 54.0998 385.653 67.5969C385.653 81.094 396.613 92.0532 410.11 92.0532C411.033 92.0532 411.955 91.9379 412.878 91.9379C400.65 90.6689 391.075 80.2865 391.075 67.5969Z" fill="#F17022"/>
<path d="M164.854 107.164L148.588 123.545L137.629 112.586L143.166 107.164L148.588 112.586L159.432 101.742L164.854 107.164Z" fill="#F0F0F0"/>
<path d="M406.417 75.4428V61.4843C406.417 60.9075 406.763 60.3307 407.225 60.1C408.84 59.1771 412.531 56.7545 412.646 54.2166C412.877 50.9865 412.993 50.4097 413.915 50.2944C414.838 50.179 417.492 53.063 417.261 56.0624C417.03 59.0617 416.338 59.7539 416.684 60.1C417.03 60.5614 424.413 60.1 425.682 60.2153C426.951 60.3307 427.182 62.8686 427.182 63.5608C427.182 64.2529 427.528 76.2504 420.952 76.9425C416.107 77.404 410.57 77.1732 407.917 77.0579C407.109 77.0579 406.417 76.3657 406.417 75.4428Z" fill="white"/>
<path d="M396.496 60.332H401.918C402.379 60.332 402.725 60.6781 402.725 61.1396V76.5978C402.725 77.0592 402.379 77.4053 401.918 77.4053H396.496C396.035 77.4053 395.688 77.0592 395.688 76.5978V61.1396C395.688 60.6781 396.035 60.332 396.496 60.332Z" fill="white"/>
<path d="M66.3359 132.08V198.412" stroke="#0A0608" stroke-width="2" stroke-miterlimit="10" stroke-linecap="round" stroke-linejoin="round"/>
</g>
<defs>
<filter id="filter0_d" x="0" y="0" width="582" height="394.262" filterUnits="userSpaceOnUse" color-interpolation-filters="sRGB">
<feFlood flood-opacity="0" result="BackgroundImageFix"/>
<feColorMatrix in="SourceAlpha" type="matrix" values="0 0 0 0 0 0 0 0 0 0 0 0 0 0 0 0 0 0 127 0"/>
<feMorphology radius="1" operator="dilate" in="SourceAlpha" result="effect1_dropShadow"/>
<feOffset dy="4"/>
<feGaussianBlur stdDeviation="10"/>
<feColorMatrix type="matrix" values="0 0 0 0 0 0 0 0 0 0 0 0 0 0 0 0 0 0 0.09 0"/>
<feBlend mode="normal" in2="BackgroundImageFix" result="effect1_dropShadow"/>
<feBlend mode="normal" in="SourceGraphic" in2="effect1_dropShadow" result="shape"/>
</filter>
</defs>
</svg>
